Coordinates
version=1
nRows=26
nColumns=24
inDegrees=yes

Units are S.I. units (second, meters, Newtons, ...)
Angles are in degrees.

endheader
time	pelvis_tilt	pelvis_list	pelvis_rotation	pelvis_tx	pelvis_ty	pelvis_tz	hip_flexion_r	hip_adduction_r	hip_rotation_r	knee_angle_r	ankle_angle_r	subtalar_angle_r	mtp_angle_r	hip_flexion_l	hip_adduction_l	hip_rotation_l	knee_angle_l	ankle_angle_l	subtalar_angle_l	mtp_angle_l	lumbar_extension	lumbar_bending	lumbar_rotation
      6.53000000	     -1.63149853	     -5.63320142	     -0.18782821	     -0.14577966	      0.70133080	      0.21734541	      7.40664517	     14.05053374	     13.01521769	     -9.41325941	     11.01928906	    -15.09725474	      0.00000000	     23.86781140	     -4.38853743	     -1.15582888	    -69.04357045	      2.28270781	     -7.45413736	      0.00000000	    -13.79839971	      7.03480184	     -1.80623136
      6.54000000	     -1.58592545	     -5.11898621	     -0.54911207	     -0.13432043	      0.70281936	      0.21782608	      5.50320288	     13.43012122	     14.63832680	     -8.07188351	     10.68770820	    -16.23873714	      0.00000000	     25.22229125	     -3.88858819	     -1.29335426	    -67.80787979	      3.60065304	     -8.60586975	      0.00000000	    -14.04589848	      6.22923553	     -1.40161698
      6.55000000	     -1.76067358	     -4.60715610	     -1.04546306	     -0.12311987	      0.70373014	      0.21827428	      4.06785077	     12.79301756	     15.78388131	     -7.07445766	     10.88206962	    -16.55954105	      0.00000000	     26.71279371	     -3.42719364	     -1.54339005	    -66.23076548	      4.35811765	    -10.02384999	      0.00000000	    -14.10112639	      5.46011010	     -0.76490322
      6.56000000	     -1.88191202	     -4.13731483	     -1.59831170	     -0.11195370	      0.70438987	      0.21879187	      2.62345826	     12.18571083	     16.99382313	     -6.13148192	     10.99457951	    -17.05819945	      0.00000000	     27.97329547	     -3.06978161	     -1.84569204	    -64.26170292	      4.92808521	    -11.32082046	      0.00000000	    -14.24365265	      4.73895442	     -0.15489129
      6.57000000	     -1.98154467	     -3.74410885	     -2.16172117	     -0.10086486	      0.70475251	      0.21925692	      1.23317793	     11.63677402	     18.16987134	     -5.29088489	     11.11110190	    -17.57525989	      0.00000000	     29.05400307	     -2.79845919	     -2.09595091	    -61.92142973	      5.35949228	    -12.46863752	      0.00000000	    -14.44306772	      4.13836031	      0.42209534
      6.58000000	     -2.09478064	     -3.43385848	     -2.72856183	     -0.08980269	      0.70478264	      0.21969090	     -0.06299628	     11.16524877	     19.19823041	     -4.56499430	     11.32695546	    -17.98765884	      0.00000000	     29.98443713	     -2.62446038	     -2.29604596	    -59.21052317	      5.69558613	    -13.44160639	      0.00000000	    -14.62907958	      3.65446359	      0.96387253
      6.59000000	     -2.17951548	     -3.20466370	     -3.26856172	     -0.07877864	      0.70452828	      0.22006810	     -1.32450539	     10.76960306	     20.13542959	     -3.93561534	     11.64540204	    -18.37610454	      0.00000000	     30.70864985	     -2.51864901	     -2.40551434	    -56.11736178	      6.01369953	    -14.22834645	      0.00000000	    -14.85971571	      3.27613172	      1.47705077
      6.60000000	     -2.37831196	     -3.06008139	     -3.81412648	     -0.06770325	      0.70394702	      0.22039666	     -2.37360575	     10.47444050	     20.81401197	     -3.47501460	     12.06310335	    -18.46243883	      0.00000000	     31.33856580	     -2.49551044	     -2.42416363	    -52.59765790	      6.30809454	    -14.79601911	      0.00000000	    -14.91747024	      3.04175041	      1.88915224
      6.61000000	     -2.45339603	     -2.98078032	     -4.35206485	     -0.05672000	      0.70331366	      0.22061511	     -3.50246970	     10.22232188	     21.49294246	     -3.10407464	     12.52687655	    -18.50313547	      0.00000000	     31.59796126	     -2.47362018	     -2.25613756	    -48.62132693	      6.56196308	    -15.26240075	      0.00000000	    -15.19042541	      2.88895683	      2.41221878
      6.62000000	     -2.53722877	     -2.95431368	     -4.82218526	     -0.04562184	      0.70247754	      0.22076056	     -4.58350659	     10.03073097	     21.97221404	     -2.81623955	     13.07821099	    -18.42194047	      0.00000000	     31.60388022	     -2.46423112	     -1.92225442	    -44.16910158	      6.84514103	    -15.56872606	      0.00000000	    -15.40910677	      2.81862357	      2.81357282
      6.63000000	     -2.84730637	     -3.00811207	     -5.20234500	     -0.03443400	      0.70115807	      0.22083753	     -5.37155934	      9.96414287	     22.27920031	     -2.63866325	     13.65892775	    -18.29539678	      0.00000000	     31.61165404	     -2.48065991	     -1.22353449	    -39.31408537	      7.16792842	    -15.57463961	      0.00000000	    -15.31475517	      2.87696592	      3.05336767
      6.64000000	     -2.48750407	     -3.09017843	     -5.63372124	     -0.02307769	      0.70063252	      0.22079907	     -6.89813769	      9.81367602	     22.39439093	     -2.47106406	     14.38164368	    -17.62415736	      0.00000000	     30.45188858	     -2.45538232	     -0.36653476	    -33.76357771	      7.07337497	    -16.22197117	      0.00000000	    -16.06525688	      2.92085642	      3.45674596
      6.65000000	     -2.56843708	     -3.27788794	     -6.10450476	     -0.01150896	      0.69934665	      0.22091567	     -7.90491050	      9.84316382	     22.50615496	     -2.45753758	     15.03811926	    -17.09705200	      0.00000000	     29.48482392	     -2.60275826	      0.92117096	    -27.85845540	      6.68636446	    -17.10435402	      0.00000000	    -16.18861246	      3.09995856	      3.94393132
      6.66000000	     -2.55624534	     -3.63790465	     -6.66157813	      0.00028100	      0.69801183	      0.22111268	     -9.03132854	     10.00116629	     22.78166327	     -2.52719186	     15.69005114	    -16.32330093	      0.00000000	     28.07641163	     -2.99601513	      2.75141767	    -21.59100114	      5.72270110	    -18.65307196	      0.00000000	    -16.41607473	      3.47199370	      4.51158115
      6.67000000	     -2.23621531	     -4.07156364	     -7.09819233	      0.01258559	      0.69674732	      0.22145840	    -10.51797448	     10.23117065	     22.71279070	     -2.65257236	     16.43242808	    -15.38578041	      0.00000000	     26.02706787	     -3.53209753	      5.28026287	    -15.05743327	      3.97955724	    -21.15285033	      0.00000000	    -16.91419668	      3.79798839	      5.00262329
      6.68000000	     -2.06591643	     -4.91062689	     -7.53003241	      0.02501880	      0.69493362	      0.22206026	    -11.85721825	     10.92260061	     22.81118388	     -2.94826691	     17.02826876	    -14.44410400	      0.00000000	     24.20268222	     -4.73300048	      7.61159211	     -8.95986870	      2.15438034	    -23.63901490	      0.00000000	    -17.24108362	      4.59969735	      5.56129601
      6.69000000	     -2.24087945	     -5.88802826	     -8.08958100	      0.03759900	      0.69260954	      0.22312130	    -12.76711412	     11.82982726	     23.07614643	     -3.49945068	     17.45373037	    -13.64960526	      0.00000000	     23.00458300	     -6.28836308	      8.48866085	     -3.74054781	      1.19185978	    -24.44236227	      0.00000000	    -17.11600473	      5.49859137	      6.40945770
      6.70000000	     -2.38752922	     -6.89563560	     -8.41447601	      0.05041993	      0.69032425	      0.22373612	    -13.67291627	     12.76270754	     23.15668540	     -4.15336430	     17.74461399	    -12.73040845	      0.00000000	     22.09564044	     -7.65356788	      8.59020683	      0.48351773	      0.93274663	    -24.05092146	      0.00000000	    -17.00945634	      6.53307730	      6.97840515
      6.71000000	     -2.39799675	     -7.66867660	     -8.72551624	      0.06362752	      0.68844322	      0.22419109	    -14.57092768	     13.41340021	     22.89235830	     -5.07541502	     18.24178655	    -11.24269918	      0.00000000	     21.19895411	     -8.58951053	      8.18656885	      3.79394597	      1.17534073	    -22.96071591	      0.00000000	    -16.97487935	      7.26910220	      7.51820718
      6.72000000	     -2.31167965	     -8.20881742	     -8.91209183	      0.07711778	      0.68698097	      0.22429502	    -15.32707642	     13.82471445	     21.96714547	     -6.34854919	     18.89410737	     -9.07032683	      0.00000000	     20.42990509	     -9.05498565	      7.76762579	      6.07756551	      1.76135868	    -21.59103270	      0.00000000	    -16.99054142	      7.76172912	      7.87749113
      6.73000000	     -2.22609800	     -8.50444166	     -8.94987639	      0.09085630	      0.68583471	      0.22408058	    -15.79703658	     14.01125912	     20.44400708	     -7.99751266	     19.52945971	     -6.44019053	      0.00000000	     19.88581230	     -9.11325119	      7.92251414	      7.37698037	      2.17588203	    -20.84328759	      0.00000000	    -16.91649075	      8.02053837	      8.02140323
      6.74000000	     -2.11973534	     -8.53870789	     -8.93321554	      0.10482143	      0.68508040	      0.22369252	    -15.97672580	     13.92077563	     18.48657075	    -10.06516409	     20.00217493	     -3.52839963	      0.00000000	     19.50043818	     -8.81825910	      8.62914255	      7.76852003	      2.28741960	    -20.90796598	      0.00000000	    -16.78586367	      7.99282745	      8.04961449
      6.75000000	     -1.99045415	     -8.29265391	     -8.87313337	      0.11891649	      0.68471269	      0.22313303	    -15.81693546	     13.51691301	     16.12352151	    -12.61212932	     20.20791128	     -0.49002659	      0.00000000	     19.31504171	     -8.15105505	      9.78242296	      7.24671278	      2.08164148	    -21.65543771	      0.00000000	    -16.62717568	      7.64526344	      8.02130235
      6.76000000	     -1.77089842	     -7.80340053	     -8.74593401	      0.13314707	      0.68475688	      0.22239349	    -15.44669973	     12.79822515	     13.62936643	    -15.55404492	     19.95187853	      2.44313512	      0.00000000	     19.22150165	     -7.13286175	     11.23303567	      5.96442877	      1.53737289	    -22.78160116	      0.00000000	    -16.52921265	      7.01568074	      7.85462873
      6.77000000	     -1.53835277	     -7.03659842	     -8.62980497	      0.14756824	      0.68506064	      0.22150441	    -14.82508101	     11.71059170	     11.26337701	    -18.83876506	     19.17941513	      5.08271640	      0.00000000	     19.28052940	     -5.73569121	     12.76502763	      4.02184485	      0.64723116	    -24.22895138	      0.00000000	    -16.36395410	      6.08559250	      7.66204184
      6.78000000	     -1.42813345	     -6.13359512	     -8.50976002	      0.16205611	      0.68535732	      0.22055223	    -13.86381909	     10.47104988	      9.27770345	    -22.40235718	     17.72842927	      7.08600990	      0.00000000	     19.54926275	     -4.16648161	     14.65503267	      1.68610388	     -0.91819512	    -26.32220148	      0.00000000	    -16.01183989	      5.03929270	      7.37814387
